<?xml version="1.0" encoding="UTF-8" standalone="no"?>
<!-- Created with Inkscape (http://www.inkscape.org/) -->

<svg
   xmlns:dc="http://purl.org/dc/elements/1.1/"
   xmlns:cc="http://creativecommons.org/ns#"
   xmlns:rdf="http://www.w3.org/1999/02/22-rdf-syntax-ns#"
   xmlns:svg="http://www.w3.org/2000/svg"
   xmlns="http://www.w3.org/2000/svg"
   xmlns:sodipodi="http://sodipodi.sourceforge.net/DTD/sodipodi-0.dtd"
   xmlns:inkscape="http://www.inkscape.org/namespaces/inkscape"
   width="475.66"
   height="370"
   id="svg2"
   version="1.1"
   inkscape:version="0.48.4 r9939"
   sodipodi:docname="metodologia_sumidero.svg">
  <defs
     id="defs4">
    <marker
       inkscape:stockid="Arrow2Lend"
       orient="auto"
       refY="0"
       refX="0"
       id="Arrow2Lend"
       style="overflow:visible">
      <path
         id="path4028"
         style="fill-rule:evenodd;stroke-width:0.625;stroke-linejoin:round"
         d="M 8.7185878,4.0337352 -2.2072895,0.01601326 8.7185884,-4.0017078 c -1.7454984,2.3720609 -1.7354408,5.6174519 -6e-7,8.035443 z"
         transform="matrix(-1.1,0,0,-1.1,-1.1,0)"
         inkscape:connector-curvature="0" />
    </marker>
    <marker
       inkscape:stockid="Arrow2Lend"
       orient="auto"
       refY="0"
       refX="0"
       id="Arrow2Lend-6"
       style="overflow:visible">
      <path
         inkscape:connector-curvature="0"
         id="path4028-4"
         style="fill-rule:evenodd;stroke-width:0.625;stroke-linejoin:round"
         d="M 8.7185878,4.0337352 -2.2072895,0.01601326 8.7185884,-4.0017078 c -1.7454984,2.3720609 -1.7354408,5.6174519 -6e-7,8.035443 z"
         transform="matrix(-1.1,0,0,-1.1,-1.1,0)" />
    </marker>
  </defs>
  <sodipodi:namedview
     id="base"
     pagecolor="#ffffff"
     bordercolor="#666666"
     borderopacity="1.0"
     inkscape:pageopacity="0.0"
     inkscape:pageshadow="2"
     inkscape:zoom="0.98994949"
     inkscape:cx="-31.184528"
     inkscape:cy="83.309545"
     inkscape:document-units="px"
     inkscape:current-layer="layer1"
     showgrid="false"
     inkscape:window-width="1680"
     inkscape:window-height="995"
     inkscape:window-x="-2"
     inkscape:window-y="-3"
     inkscape:window-maximized="1"
     fit-margin-top="0"
     fit-margin-left="0"
     fit-margin-right="0"
     fit-margin-bottom="0" />
  <metadata
     id="metadata7">
    <rdf:RDF>
      <cc:Work
         rdf:about="">
        <dc:format>image/svg+xml</dc:format>
        <dc:type
           rdf:resource="http://purl.org/dc/dcmitype/StillImage" />
        <dc:title />
      </cc:Work>
    </rdf:RDF>
  </metadata>
  <g
     inkscape:groupmode="layer"
     id="layer2"
     inkscape:label="espiral-de-azul"
     style="display:inline"
     transform="translate(-106.54854,10.215927)">
    <path
       sodipodi:type="spiral"
       style="fill:none;stroke:#0046aa;stroke-width:2;stroke-linecap:butt;stroke-linejoin:miter;stroke-miterlimit:4;stroke-opacity:1;stroke-dasharray:none"
       id="path2985-6"
       sodipodi:cx="297.14285"
       sodipodi:cy="209.50504"
       sodipodi:expansion="2"
       sodipodi:revolution="3.1713796"
       sodipodi:radius="173.06334"
       sodipodi:argument="-20.736322"
       sodipodi:t0="0.93200195"
       d="M 212.99318,84.936906 C 271.00763,35.933642 357.43423,38.264475 416.47516,84.16262"
       transform="matrix(-1,0,0,1,607.08828,-9.922257)" />
    <path
       sodipodi:type="spiral"
       style="fill:none;stroke:#000000;stroke-width:1px;stroke-linecap:butt;stroke-linejoin:miter;stroke-opacity:1"
       id="path4700"
       sodipodi:cx="305.06607"
       sodipodi:cy="200.80359"
       sodipodi:expansion="2"
       sodipodi:revolution="3.1713796"
       sodipodi:radius="60.986782"
       sodipodi:argument="-21.033514"
       sodipodi:t0="0.99900001"
       d="m 331.19559,145.83286 c 0.38293,0.13701 0.76449,0.27785 1.14461,0.4225" />
  </g>
  <g
     style="display:inline"
     inkscape:groupmode="layer"
     id="g4702"
     inkscape:label="espiral-de-naranja"
     transform="translate(-106.54854,10.215927)">
    <path
       sodipodi:type="spiral"
       style="fill:none;stroke:#da6700;stroke-width:2;stroke-linecap:butt;stroke-linejoin:miter;stroke-miterlimit:4;stroke-opacity:1;stroke-dasharray:none"
       id="path4704"
       sodipodi:cx="297.14285"
       sodipodi:cy="209.50504"
       sodipodi:expansion="2"
       sodipodi:revolution="2.9562626"
       sodipodi:radius="150.38161"
       sodipodi:argument="-20.736322"
       sodipodi:t0="0.89246988"
       d="m 234.18201,311.40213 c -66.28723,-30.67406 -89.66319,-113.18417 -59.16172,-177.35498 9.03202,-19.00211 22.24766,-35.918798 38.3586,-49.434977"
       transform="matrix(-1,0,0,1,607.08828,-9.922257)" />
  </g>
  <g
     style="display:inline"
     inkscape:groupmode="layer"
     id="g4706"
     inkscape:label="espiral-de-green"
     transform="translate(-106.54854,10.215927)">
    <path
       sodipodi:type="spiral"
       style="fill:none;stroke:#199d00;stroke-width:2;stroke-linecap:butt;stroke-linejoin:miter;stroke-miterlimit:4;stroke-opacity:1;stroke-dasharray:none"
       id="path4708"
       sodipodi:cx="297.14285"
       sodipodi:cy="209.50504"
       sodipodi:expansion="2"
       sodipodi:revolution="2.6389899"
       sodipodi:radius="119.83524"
       sodipodi:argument="-20.736322"
       sodipodi:t0="0.74803829"
       d="m 266.24235,149.99408 c 34.14758,-25.36026 82.58145,-13.05412 106.43911,20.28825 30.86676,43.13798 15.16829,103.41949 -27.00251,132.69786 -32.72139,22.71782 -76.11798,24.96186 -111.91954,8.22551"
       transform="matrix(-1,0,0,1,607.08828,-9.922257)" />
  </g>
  <g
     style="display:inline"
     inkscape:groupmode="layer"
     id="g4710"
     inkscape:label="espiral-de-brown"
     transform="translate(-106.54854,10.215927)"
     sodipodi:insensitive="true">
    <path
       sodipodi:type="spiral"
       style="fill:none;stroke:#ca10bc;stroke-width:2;stroke-linecap:butt;stroke-linejoin:miter;stroke-miterlimit:4;stroke-opacity:1;stroke-dasharray:none"
       id="path4712"
       sodipodi:cx="297.14285"
       sodipodi:cy="209.50504"
       sodipodi:expansion="2"
       sodipodi:revolution="1.9789623"
       sodipodi:radius="67.388107"
       sodipodi:argument="-20.736322"
       sodipodi:t0="0"
       d="m 297.14285,209.50504 c -0.14835,-0.4538 0.86192,-0.39266 1.02221,-0.33419 1.83692,0.67012 1.24218,3.29425 0.31452,4.42301 -2.79541,3.40142 -8.04585,1.77392 -10.53658,-1.08118 -5.26002,-6.02952 -2.03226,-15.12455 3.85293,-19.36293 10.36267,-7.46295 24.54233,-2.02433 30.90206,8.00072 10.02352,15.80041 1.75264,36.30358 -13.52457,45.15397 -22.34643,12.94573 -50.41036,1.21812 -62.11864,-20.42446 -14.5163,-26.83317 -3.38689,-60.22708 20.88864,-77.10838"
       transform="matrix(-1,0,0,1,607.08828,-9.922257)" />
  </g>
  <g
     inkscape:label="espiral-de-bn"
     id="g4686"
     inkscape:groupmode="layer"
     style="display:none"
     transform="translate(-106.54854,10.215927)"
     sodipodi:insensitive="true">
    <path
       transform="matrix(-1,0,0,1,607.08828,-9.922257)"
       d="m 297.14285,209.50504 c -0.14835,-0.4538 0.86192,-0.39266 1.02221,-0.33419 1.83692,0.67012 1.24218,3.29425 0.31452,4.42301 -2.79541,3.40142 -8.04585,1.77393 -10.53659,-1.08118 -5.26002,-6.02952 -2.03226,-15.12456 3.85294,-19.36295 10.36268,-7.46296 24.54235,-2.02433 30.90209,8.00074 10.02352,15.80042 1.75263,36.3036 -13.52459,45.154 -22.34645,12.94575 -50.4104,1.21813 -62.1187,-20.42448 -16.23102,-30.0028 -0.42114,-66.86387 28.70043,-81.79617 38.77064,-19.87994 85.66466,0.63817 104.18642,38.35241 23.89272,48.65067 -1.95978,106.81319 -49.38045,129.28946 -59.6433,28.2695 -130.3097,-3.54367 -157.10527,-61.78454 -33.01033,-71.74881 5.38986,-156.154371 75.56467,-187.633855 54.953,-24.651182 120.25264,-14.839285 167.45463,21.855325"
       sodipodi:t0="0"
       sodipodi:argument="-20.736322"
       sodipodi:radius="173.06334"
       sodipodi:revolution="3.1713796"
       sodipodi:expansion="2"
       sodipodi:cy="209.50504"
       sodipodi:cx="297.14285"
       id="path4688"
       style="fill:none;stroke:#000000;stroke-width:1px;stroke-linecap:butt;stroke-linejoin:miter;stroke-opacity:1"
       sodipodi:type="spiral" />
  </g>
  <g
     inkscape:label="estaciones"
     inkscape:groupmode="layer"
     id="layer1"
     transform="translate(-106.54854,10.215927)"
     sodipodi:insensitive="true">
    <text
       xml:space="preserve"
       style="font-size:40px;font-style:normal;font-weight:normal;line-height:125%;letter-spacing:0px;word-spacing:0px;fill:#000000;fill-opacity:1;stroke:none;font-family:Sans"
       x="395.49728"
       y="20.955826"
       id="text3018"
       sodipodi:linespacing="125%"><tspan
         sodipodi:role="line"
         x="395.49728"
         y="20.955826"
         style="font-size:14px;text-align:center;text-anchor:middle"
         id="tspan3050">Limitations</tspan><tspan
         sodipodi:role="line"
         x="395.49728"
         y="38.455826"
         style="font-size:14px;text-align:center;text-anchor:middle"
         id="tspan3052">identification</tspan></text>
    <text
       xml:space="preserve"
       style="font-size:40px;font-style:normal;font-weight:normal;line-height:125%;letter-spacing:0px;word-spacing:0px;fill:#000000;fill-opacity:1;stroke:none;font-family:Sans"
       x="158.38545"
       y="24.536739"
       id="text3018-2"
       sodipodi:linespacing="125%"><tspan
         sodipodi:role="line"
         id="tspan3020-7"
         x="158.38545"
         y="24.536739"
         style="font-size:14px;text-align:center;text-anchor:middle">Review</tspan><tspan
         sodipodi:role="line"
         x="158.38545"
         y="42.036739"
         id="tspan3022-2"
         style="font-size:14px;text-align:center;text-anchor:middle">state of the art</tspan></text>
    <text
       xml:space="preserve"
       style="font-size:40px;font-style:normal;font-weight:normal;line-height:125%;letter-spacing:0px;word-spacing:0px;fill:#000000;fill-opacity:1;stroke:none;font-family:Sans"
       x="508.58313"
       y="114.45568"
       id="text3018-26"
       sodipodi:linespacing="125%"><tspan
         sodipodi:role="line"
         x="508.58313"
         y="114.45568"
         style="font-size:14px;text-align:center;text-anchor:middle"
         id="tspan3052-1">Solution</tspan><tspan
         sodipodi:role="line"
         x="508.58313"
         y="131.95569"
         style="font-size:14px;text-align:center;text-anchor:middle"
         id="tspan3085">suggestion</tspan></text>
    <text
       xml:space="preserve"
       style="font-size:40px;font-style:normal;font-weight:normal;line-height:125%;letter-spacing:0px;word-spacing:0px;fill:#000000;fill-opacity:1;stroke:none;font-family:Sans"
       x="524.38995"
       y="253.83643"
       id="text3018-26-9"
       sodipodi:linespacing="125%"><tspan
         sodipodi:role="line"
         x="524.38995"
         y="253.83643"
         style="font-size:14px;text-align:center;text-anchor:middle"
         id="tspan3085-1">Comparison with</tspan><tspan
         sodipodi:role="line"
         x="524.38995"
         y="271.33643"
         style="font-size:14px;text-align:center;text-anchor:middle"
         id="tspan3116">existing works</tspan></text>
    <text
       xml:space="preserve"
       style="font-size:40px;font-style:normal;font-weight:normal;line-height:125%;letter-spacing:0px;word-spacing:0px;fill:#000000;fill-opacity:1;stroke:none;font-family:Sans"
       x="334.54303"
       y="356.87198"
       id="text3018-26-9-5"
       sodipodi:linespacing="125%"><tspan
         sodipodi:role="line"
         x="334.54303"
         y="356.87198"
         style="font-size:14px;text-align:center;text-anchor:middle"
         id="tspan3116-8">Planning</tspan></text>
    <text
       xml:space="preserve"
       style="font-size:40px;font-style:normal;font-weight:normal;line-height:125%;letter-spacing:0px;word-spacing:0px;fill:#000000;fill-opacity:1;stroke:none;font-family:Sans"
       x="195.87772"
       y="301.51886"
       id="text3018-26-9-5-8"
       sodipodi:linespacing="125%"><tspan
         sodipodi:role="line"
         x="195.87772"
         y="301.51886"
         style="font-size:14px;text-align:center;text-anchor:middle"
         id="tspan3116-8-4">Development</tspan></text>
    <text
       xml:space="preserve"
       style="font-size:40px;font-style:normal;font-weight:normal;line-height:125%;letter-spacing:0px;word-spacing:0px;fill:#000000;fill-opacity:1;stroke:none;font-family:Sans"
       x="142.23294"
       y="172.49091"
       id="text3018-26-9-5-8-9"
       sodipodi:linespacing="125%"><tspan
         sodipodi:role="line"
         x="142.23294"
         y="172.49091"
         style="font-size:14px;text-align:center;text-anchor:middle"
         id="tspan3116-8-4-0">Evaluation</tspan></text>
    <text
       xml:space="preserve"
       style="font-size:40px;font-style:normal;font-weight:normal;line-height:125%;letter-spacing:0px;word-spacing:0px;fill:#000000;fill-opacity:1;stroke:none;font-family:Sans"
       x="250.14195"
       y="111.7274"
       id="text3018-26-9-5-8-9-0"
       sodipodi:linespacing="125%"><tspan
         sodipodi:role="line"
         x="250.14195"
         y="111.7274"
         style="font-size:14px;text-align:center;text-anchor:middle"
         id="tspan3116-8-4-0-7">Contrast</tspan></text>
    <path
       style="fill:none;stroke:#000000;stroke-width:1;stroke-linecap:butt;stroke-linejoin:miter;stroke-miterlimit:4;stroke-opacity:1;stroke-dasharray:8, 8;stroke-dashoffset:0;marker-end:url(#Arrow2Lend)"
       d="m 333.35034,111.86955 c 25.95411,-15.717293 51.09233,-24.499588 71.72083,5.05077"
       id="path3233"
       inkscape:connector-curvature="0"
       sodipodi:nodetypes="cc" />
    <text
       xml:space="preserve"
       style="font-size:40px;font-style:normal;font-weight:normal;line-height:125%;letter-spacing:0px;word-spacing:0px;fill:#000000;fill-opacity:1;stroke:none;font-family:Sans"
       x="353.29059"
       y="87.711922"
       id="text3018-26-9-5-8-9-0-6"
       sodipodi:linespacing="125%"><tspan
         sodipodi:role="line"
         x="353.29059"
         y="87.711922"
         style="font-size:14px;text-align:center;text-anchor:middle"
         id="tspan3116-8-4-0-7-0">Feedback</tspan></text>
    <path
       style="fill:none;stroke:#000000;stroke-width:1;stroke-linecap:butt;stroke-linejoin:miter;stroke-miterlimit:4;stroke-opacity:1;stroke-dasharray:8, 8;stroke-dashoffset:0;marker-end:url(#Arrow2Lend)"
       d="m 468.69716,223.54639 c 12.29403,-23.712 6.98862,-42.2873 -8.64659,-64.59452"
       id="path3233-9"
       inkscape:connector-curvature="0"
       sodipodi:nodetypes="cc" />
    <text
       xml:space="preserve"
       style="font-size:40px;font-style:normal;font-weight:normal;line-height:125%;letter-spacing:0px;word-spacing:0px;fill:#000000;fill-opacity:1;stroke:none;font-family:Sans"
       x="527.11621"
       y="198.04941"
       id="text3018-26-9-5-8-9-0-6-4"
       sodipodi:linespacing="125%"><tspan
         sodipodi:role="line"
         x="527.11621"
         y="198.04941"
         style="font-size:14px;text-align:center;text-anchor:middle"
         id="tspan3116-8-4-0-7-0-8">Feedback</tspan></text>
    <path
       sodipodi:type="arc"
       style="fill:#f6f6f6;fill-opacity:1;stroke:#b6b6b6;stroke-width:2;stroke-linecap:round;stroke-miterlimit:4;stroke-opacity:1;stroke-dasharray:none;stroke-dashoffset:0"
       id="path2987-8-9"
       sodipodi:cx="191.4239"
       sodipodi:cy="76.049751"
       sodipodi:rx="20.708128"
       sodipodi:ry="20.708128"
       d="m 212.13203,76.049751 c 0,11.436784 -9.27134,20.708128 -20.70813,20.708128 -11.43678,0 -20.70812,-9.271344 -20.70812,-20.708128 0,-11.436783 9.27134,-20.708128 20.70812,-20.708128 11.43679,0 20.70813,9.271345 20.70813,20.708128 z"
       transform="translate(122.73353,121.72338)" />
    <text
       xml:space="preserve"
       style="font-size:40px;font-style:normal;font-weight:normal;line-height:125%;letter-spacing:0px;word-spacing:0px;fill:#000000;fill-opacity:1;stroke:none;font-family:Sans"
       x="349.86325"
       y="237.33755"
       id="text3018-26-9-5-8-9-0-6-9"
       sodipodi:linespacing="125%"><tspan
         sodipodi:role="line"
         x="349.86325"
         y="237.33755"
         style="font-size:14px;text-align:center;text-anchor:middle"
         id="tspan3116-8-4-0-7-0-4">Conclusion</tspan></text>
    <path
       sodipodi:type="arc"
       style="fill:#f6f6f6;fill-opacity:1;stroke:#b6b6b6;stroke-width:2;stroke-linecap:round;stroke-miterlimit:4;stroke-opacity:1;stroke-dasharray:none;stroke-dashoffset:0"
       id="path2987-8-9-1"
       sodipodi:cx="191.4239"
       sodipodi:cy="76.049751"
       sodipodi:rx="20.708128"
       sodipodi:ry="20.708128"
       d="m 212.13203,76.049751 c 0,11.436784 -9.27134,20.708128 -20.70813,20.708128 -11.43678,0 -20.70812,-9.271344 -20.70812,-20.708128 0,-11.436783 9.27134,-20.708128 20.70812,-20.708128 11.43679,0 20.70813,9.271345 20.70813,20.708128 z"
       transform="translate(114.67262,52.992394)" />
    <path
       sodipodi:type="arc"
       style="fill:#f6f6f6;fill-opacity:1;stroke:#b6b6b6;stroke-width:2;stroke-linecap:round;stroke-miterlimit:4;stroke-opacity:1;stroke-dasharray:none;stroke-dashoffset:0"
       id="path2987-8-9-1-7"
       sodipodi:cx="191.4239"
       sodipodi:cy="76.049751"
       sodipodi:rx="20.708128"
       sodipodi:ry="20.708128"
       d="m 212.13203,76.049751 c 0,11.436784 -9.27134,20.708128 -20.70813,20.708128 -11.43678,0 -20.70812,-9.271344 -20.70812,-20.708128 0,-11.436783 9.27134,-20.708128 20.70812,-20.708128 11.43679,0 20.70813,9.271345 20.70813,20.708128 z"
       transform="translate(30.789346,99.479721)" />
    <path
       sodipodi:type="arc"
       style="fill:#f6f6f6;fill-opacity:1;stroke:#b6b6b6;stroke-width:2;stroke-linecap:round;stroke-miterlimit:4;stroke-opacity:1;stroke-dasharray:none;stroke-dashoffset:0"
       id="path2987-8-9-1-7-0"
       sodipodi:cx="191.4239"
       sodipodi:cy="76.049751"
       sodipodi:rx="20.708128"
       sodipodi:ry="20.708128"
       d="m 212.13203,76.049751 c 0,11.436784 -9.27134,20.708128 -20.70813,20.708128 -11.43678,0 -20.70812,-9.271344 -20.70812,-20.708128 0,-11.436783 9.27134,-20.708128 20.70812,-20.708128 11.43679,0 20.70813,9.271345 20.70813,20.708128 z"
       transform="translate(38.911184,182.37314)" />
    <path
       sodipodi:type="arc"
       style="fill:#f6f6f6;fill-opacity:1;stroke:#b6b6b6;stroke-width:2;stroke-linecap:round;stroke-miterlimit:4;stroke-opacity:1;stroke-dasharray:none;stroke-dashoffset:0"
       id="path2987-8-9-1-7-2"
       sodipodi:cx="191.4239"
       sodipodi:cy="76.049751"
       sodipodi:rx="20.708128"
       sodipodi:ry="20.708128"
       d="m 212.13203,76.049751 c 0,11.436784 -9.27134,20.708128 -20.70813,20.708128 -11.43678,0 -20.70812,-9.271344 -20.70812,-20.708128 0,-11.436783 9.27134,-20.708128 20.70812,-20.708128 11.43679,0 20.70813,9.271345 20.70813,20.708128 z"
       transform="translate(129.8046,235.85031)" />
    <path
       sodipodi:type="arc"
       style="fill:#f6f6f6;fill-opacity:1;stroke:#b6b6b6;stroke-width:2;stroke-linecap:round;stroke-miterlimit:4;stroke-opacity:1;stroke-dasharray:none;stroke-dashoffset:0"
       id="path2987-8-9-1-7-2-1"
       sodipodi:cx="191.4239"
       sodipodi:cy="76.049751"
       sodipodi:rx="20.708128"
       sodipodi:ry="20.708128"
       d="m 212.13203,76.049751 c 0,11.436784 -9.27134,20.708128 -20.70813,20.708128 -11.43678,0 -20.70812,-9.271344 -20.70812,-20.708128 0,-11.436783 9.27134,-20.708128 20.70812,-20.708128 11.43679,0 20.70813,9.271345 20.70813,20.708128 z"
       transform="translate(234.86047,177.28176)" />
    <path
       sodipodi:type="arc"
       style="fill:#f6f6f6;fill-opacity:1;stroke:#b6b6b6;stroke-width:2;stroke-linecap:round;stroke-miterlimit:4;stroke-opacity:1;stroke-dasharray:none;stroke-dashoffset:0"
       id="path2987-8-9-1-7-2-1-0"
       sodipodi:cx="191.4239"
       sodipodi:cy="76.049751"
       sodipodi:rx="20.708128"
       sodipodi:ry="20.708128"
       d="m 212.13203,76.049751 c 0,11.436784 -9.27134,20.708128 -20.70813,20.708128 -11.43678,0 -20.70812,-9.271344 -20.70812,-20.708128 0,-11.436783 9.27134,-20.708128 20.70812,-20.708128 11.43679,0 20.70813,9.271345 20.70813,20.708128 z"
       transform="translate(245.99245,64.124377)" />
    <path
       sodipodi:type="arc"
       style="fill:#f6f6f6;fill-opacity:1;stroke:#b6b6b6;stroke-width:2;stroke-linecap:round;stroke-miterlimit:4;stroke-opacity:1;stroke-dasharray:none;stroke-dashoffset:0"
       id="path2987-8-9-1-7-2-1-6"
       sodipodi:cx="191.4239"
       sodipodi:cy="76.049751"
       sodipodi:rx="20.708128"
       sodipodi:ry="20.708128"
       d="m 212.13203,76.049751 c 0,11.436784 -9.27134,20.708128 -20.70813,20.708128 -11.43678,0 -20.70812,-9.271344 -20.70812,-20.708128 0,-11.436783 9.27134,-20.708128 20.70812,-20.708128 11.43679,0 20.70813,9.271345 20.70813,20.708128 z"
       transform="translate(121.72339,-35.860419)" />
    <path
       sodipodi:type="arc"
       style="fill:#f6f6f6;fill-opacity:1;stroke:#b6b6b6;stroke-width:2;stroke-linecap:round;stroke-miterlimit:4;stroke-opacity:1;stroke-dasharray:none;stroke-dashoffset:0"
       id="path2987-8-9-1-7-2-1-4"
       sodipodi:cx="191.4239"
       sodipodi:cy="76.049751"
       sodipodi:rx="20.708128"
       sodipodi:ry="20.708128"
       d="m 212.13203,76.049751 c 0,11.436784 -9.27134,20.708128 -20.70813,20.708128 -11.43678,0 -20.70812,-9.271344 -20.70812,-20.708128 0,-11.436783 9.27134,-20.708128 20.70812,-20.708128 11.43679,0 20.70813,9.271345 20.70813,20.708128 z"
       transform="translate(-0.50507327,-0.50507991)" />
  </g>
</svg>
